<?xml version="1.0" encoding="UTF-8" standalone="no"?><!DOCTYPE svg PUBLIC "-//W3C//DTD SVG 1.1//EN" "http://www.w3.org/Graphics/SVG/1.1/DTD/svg11.dtd"><!-- Generated by graphviz version 2.40.1 (20161225.0304)
 --><!-- Title: %0 Pages: 1 --><svg xmlns="http://www.w3.org/2000/svg" xmlns:xlink="http://www.w3.org/1999/xlink" width="800pt" height="222pt" viewBox="0.00 0.00 800.04 221.60">
<g id="graph0" class="graph" transform="scale(1 1) rotate(0) translate(4 217.6)">
<title>%0</title>
<polygon fill="#ffffff" stroke="transparent" points="-4,4 -4,-217.6 796.0434,-217.6 796.0434,4 -4,4"/>
<!-- site1.example.com. -->
<g id="node1" class="node">
<title>site1.example.com.</title>
<ellipse fill="none" stroke="#000000" cx="85.8575" cy="-195.6" rx="85.7153" ry="18"/>
<text text-anchor="middle" x="85.8575" y="-191.4" font-family="Times,serif" font-size="14.00" fill="#000000">site1.example.com.</text>
</g>
<!-- ns1.example.com. -->
<g id="node2" class="node">
<title>ns1.example.com.</title>
<ellipse fill="none" stroke="#000000" cx="99.8575" cy="-106.8" rx="81.064" ry="18"/>
<text text-anchor="middle" x="99.8575" y="-102.6" font-family="Times,serif" font-size="14.00" fill="#000000">ns1.example.com.</text>
</g>
<!-- site1.example.com.&#45;&gt;ns1.example.com. -->
<g id="edge1" class="edge">
<title>site1.example.com.-&gt;ns1.example.com.</title>
<path fill="none" stroke="#000000" d="M88.7584,-177.2006C90.6858,-164.975 93.2535,-148.6887 95.4337,-134.8599"/>
<polygon fill="#000000" stroke="#000000" points="98.9082,-135.2951 97.0084,-124.872 91.9936,-134.2049 98.9082,-135.2951"/>
<text text-anchor="middle" x="108.8554" y="-147" font-family="Times,serif" font-size="14.00" fill="#000000">SOA</text>
</g>
<!-- site1.example.com.&#45;&gt;ns1.example.com. -->
<g id="edge2" class="edge">
<title>site1.example.com.-&gt;ns1.example.com.</title>
<path fill="none" stroke="#000000" d="M74.5582,-177.358C69.6577,-167.1129 65.8726,-154.145 69.9683,-142.8 71.1916,-139.4118 72.8878,-136.1173 74.8565,-132.9856"/>
<polygon fill="#000000" stroke="#000000" points="77.877,-134.7848 80.9597,-124.6484 72.2287,-130.65 77.877,-134.7848"/>
<text text-anchor="middle" x="79.8021" y="-147" font-family="Times,serif" font-size="14.00" fill="#000000">NS</text>
</g>
<!-- ns2.example.com. -->
<g id="node3" class="node">
<title>ns2.example.com.</title>
<ellipse fill="none" stroke="#000000" cx="280.8575" cy="-106.8" rx="81.064" ry="18"/>
<text text-anchor="middle" x="280.8575" y="-102.6" font-family="Times,serif" font-size="14.00" fill="#000000">ns2.example.com.</text>
</g>
<!-- site1.example.com.&#45;&gt;ns2.example.com. -->
<g id="edge3" class="edge">
<title>site1.example.com.-&gt;ns2.example.com.</title>
<path fill="none" stroke="#000000" d="M134.2109,-180.5573C149.0529,-174.9849 165.0908,-167.9505 178.8575,-159.6 188.5268,-153.7349 188.4195,-148.8592 197.9683,-142.8 207.5995,-136.6886 218.4455,-131.1449 229.0397,-126.3393"/>
<polygon fill="#000000" stroke="#000000" points="230.4893,-129.5254 238.2479,-122.3105 227.6835,-123.1124 230.4893,-129.5254"/>
<text text-anchor="middle" x="207.8021" y="-147" font-family="Times,serif" font-size="14.00" fill="#000000">NS</text>
</g>
<!-- 42.42.42.10 -->
<g id="node9" class="node">
<title>42.42.42.10</title>
<ellipse fill="none" stroke="#000000" cx="99.8575" cy="-18" rx="56.8141" ry="18"/>
<text text-anchor="middle" x="99.8575" y="-13.8" font-family="Times,serif" font-size="14.00" fill="#000000">42.42.42.10</text>
</g>
<!-- ns1.example.com.&#45;&gt;42.42.42.10 -->
<g id="edge10" class="edge">
<title>ns1.example.com.-&gt;42.42.42.10</title>
<path fill="none" stroke="#000000" d="M99.8575,-88.4006C99.8575,-76.2949 99.8575,-60.2076 99.8575,-46.4674"/>
<polygon fill="#000000" stroke="#000000" points="103.3576,-46.072 99.8575,-36.072 96.3576,-46.0721 103.3576,-46.072"/>
<text text-anchor="middle" x="104.9108" y="-58.2" font-family="Times,serif" font-size="14.00" fill="#000000">A</text>
</g>
<!-- 42.42.42.11 -->
<g id="node10" class="node">
<title>42.42.42.11</title>
<ellipse fill="none" stroke="#000000" cx="280.8575" cy="-18" rx="56.8141" ry="18"/>
<text text-anchor="middle" x="280.8575" y="-13.8" font-family="Times,serif" font-size="14.00" fill="#000000">42.42.42.11</text>
</g>
<!-- ns2.example.com.&#45;&gt;42.42.42.11 -->
<g id="edge11" class="edge">
<title>ns2.example.com.-&gt;42.42.42.11</title>
<path fill="none" stroke="#000000" d="M280.8575,-88.4006C280.8575,-76.2949 280.8575,-60.2076 280.8575,-46.4674"/>
<polygon fill="#000000" stroke="#000000" points="284.3576,-46.072 280.8575,-36.072 277.3576,-46.0721 284.3576,-46.072"/>
<text text-anchor="middle" x="285.9108" y="-58.2" font-family="Times,serif" font-size="14.00" fill="#000000">A</text>
</g>
<!-- serv1.site1.example.com. -->
<g id="node4" class="node">
<title>serv1.site1.example.com.</title>
<ellipse fill="none" stroke="#000000" cx="446.8575" cy="-195.6" rx="109.372" ry="18"/>
<text text-anchor="middle" x="446.8575" y="-191.4" font-family="Times,serif" font-size="14.00" fill="#000000">serv1.site1.example.com.</text>
</g>
<!-- _entrypoint1.site1.example.com. -->
<g id="node5" class="node">
<title>_entrypoint1.site1.example.com.</title>
<ellipse fill="none" stroke="#000000" cx="600.8575" cy="-106.8" rx="137.7473" ry="18"/>
<text text-anchor="middle" x="600.8575" y="-102.6" font-family="Times,serif" font-size="14.00" fill="#000000">_entrypoint1.site1.example.com.</text>
</g>
<!-- serv1.site1.example.com.&#45;&gt;_entrypoint1.site1.example.com. -->
<g id="edge4" class="edge">
<title>serv1.site1.example.com.-&gt;_entrypoint1.site1.example.com.</title>
<path fill="none" stroke="#000000" d="M476.9159,-178.2677C501.0325,-164.3614 535.0838,-144.7267 561.3942,-129.5555"/>
<polygon fill="#000000" stroke="#000000" points="563.4341,-132.4195 570.3487,-124.3921 559.9374,-126.3554 563.4341,-132.4195"/>
<text text-anchor="middle" x="563.131" y="-147" font-family="Times,serif" font-size="14.00" fill="#000000">CNAME</text>
</g>
<!-- 42.42.42.20 -->
<g id="node7" class="node">
<title>42.42.42.20</title>
<ellipse fill="none" stroke="#000000" cx="600.8575" cy="-18" rx="56.8141" ry="18"/>
<text text-anchor="middle" x="600.8575" y="-13.8" font-family="Times,serif" font-size="14.00" fill="#000000">42.42.42.20</text>
</g>
<!-- _entrypoint1.site1.example.com.&#45;&gt;42.42.42.20 -->
<g id="edge6" class="edge">
<title>_entrypoint1.site1.example.com.-&gt;42.42.42.20</title>
<path fill="none" stroke="#000000" d="M600.8575,-88.4006C600.8575,-76.2949 600.8575,-60.2076 600.8575,-46.4674"/>
<polygon fill="#000000" stroke="#000000" points="604.3576,-46.072 600.8575,-36.072 597.3576,-46.0721 604.3576,-46.072"/>
<text text-anchor="middle" x="605.9108" y="-58.2" font-family="Times,serif" font-size="14.00" fill="#000000">A</text>
</g>
<!-- serv2.site1.example.com. -->
<g id="node6" class="node">
<title>serv2.site1.example.com.</title>
<ellipse fill="none" stroke="#000000" cx="682.8575" cy="-195.6" rx="109.372" ry="18"/>
<text text-anchor="middle" x="682.8575" y="-191.4" font-family="Times,serif" font-size="14.00" fill="#000000">serv2.site1.example.com.</text>
</g>
<!-- serv2.site1.example.com.&#45;&gt;_entrypoint1.site1.example.com. -->
<g id="edge5" class="edge">
<title>serv2.site1.example.com.-&gt;_entrypoint1.site1.example.com.</title>
<path fill="none" stroke="#000000" d="M666.2636,-177.63C654.2599,-164.6308 637.8679,-146.8795 624.4971,-132.3999"/>
<polygon fill="#000000" stroke="#000000" points="626.7824,-129.7156 617.4268,-124.7433 621.6396,-134.4645 626.7824,-129.7156"/>
<text text-anchor="middle" x="675.131" y="-147" font-family="Times,serif" font-size="14.00" fill="#000000">CNAME</text>
</g>
<!-- example.com. -->
<g id="node8" class="node">
<title>example.com.</title>
<ellipse fill="none" stroke="#000000" cx="254.8575" cy="-195.6" rx="65.4111" ry="18"/>
<text text-anchor="middle" x="254.8575" y="-191.4" font-family="Times,serif" font-size="14.00" fill="#000000">example.com.</text>
</g>
<!-- example.com.&#45;&gt;ns1.example.com. -->
<g id="edge7" class="edge">
<title>example.com.-&gt;ns1.example.com.</title>
<path fill="none" stroke="#000000" d="M205.5964,-183.7373C187.5261,-178.0812 167.4511,-170.186 150.8617,-159.6 139.4463,-152.3156 128.7207,-141.9826 120.0787,-132.3864"/>
<polygon fill="#000000" stroke="#000000" points="122.5246,-129.8636 113.3401,-124.582 117.2263,-134.4384 122.5246,-129.8636"/>
<text text-anchor="middle" x="165.8554" y="-147" font-family="Times,serif" font-size="14.00" fill="#000000">SOA</text>
</g>
<!-- example.com.&#45;&gt;ns1.example.com. -->
<g id="edge8" class="edge">
<title>example.com.-&gt;ns1.example.com.</title>
<path fill="none" stroke="#000000" d="M246.9133,-177.5474C240.9956,-166.0579 231.8684,-151.7135 219.8575,-142.8 206.6227,-132.9781 190.7094,-125.8167 174.8628,-120.6012"/>
<polygon fill="#000000" stroke="#000000" points="175.6153,-117.1715 165.0291,-117.5989 173.5713,-123.8664 175.6153,-117.1715"/>
<text text-anchor="middle" x="244.8021" y="-147" font-family="Times,serif" font-size="14.00" fill="#000000">NS</text>
</g>
<!-- example.com.&#45;&gt;ns2.example.com. -->
<g id="edge9" class="edge">
<title>example.com.-&gt;ns2.example.com.</title>
<path fill="none" stroke="#000000" d="M260.119,-177.63C263.725,-165.3142 268.5799,-148.7328 272.6859,-134.7095"/>
<polygon fill="#000000" stroke="#000000" points="276.0636,-135.6287 275.5146,-125.0481 269.3456,-133.6616 276.0636,-135.6287"/>
<text text-anchor="middle" x="279.8021" y="-147" font-family="Times,serif" font-size="14.00" fill="#000000">NS</text>
</g>
</g>
</svg>